<svg width="16" height="15" viewBox="0 0 16 15" fill="none" xmlns="http://www.w3.org/2000/svg">
<path d="M7.66667 2.88506V12.8851M4.83333 4.88506H3.33333M5.33333 6.88506H3.33333M14.3333 10.3851V2.33839C14.3333 1.53839 13.68 0.945061 12.8867 1.01173H12.8467C11.4467 1.13173 9.32 1.84506 8.13333 2.59173L8.02 2.66506C7.82667 2.78506 7.50667 2.78506 7.31333 2.66506L7.14667 2.56506C5.96 1.82506 3.84 1.11839 2.44 1.00506C1.64667 0.938394 1 1.53839 1 2.33173V10.3851C1 11.0251 1.52 11.6251 2.16 11.7051L2.35333 11.7317C3.8 11.9251 6.03333 12.6584 7.31333 13.3584L7.34 13.3717C7.52 13.4717 7.80667 13.4717 7.98 13.3717C9.26 12.6651 11.5 11.9251 12.9533 11.7317L13.1733 11.7051C13.8133 11.6251 14.3333 11.0251 14.3333 10.3851Z" stroke="#F44336" stroke-width="1.5" stroke-linecap="round" stroke-linejoin="round"/>
</svg>
