<svg width="16" height="16" viewBox="0 0 16 16" fill="none" xmlns="http://www.w3.org/2000/svg">
<path d="M14.3133 11.8867C14.3133 12.1267 14.26 12.3733 14.1467 12.6133C14.0333 12.8533 13.8867 13.08 13.6933 13.2933C13.3667 13.6533 13.0067 13.9133 12.6 14.08C12.2 14.2467 11.7667 14.3333 11.3 14.3333C10.62 14.3333 9.89333 14.1733 9.12667 13.8467C8.36 13.52 7.59333 13.08 6.83333 12.5267C6.05874 11.9601 5.32779 11.3361 4.64667 10.66C3.97251 9.98134 3.35073 9.25259 2.78667 8.48C2.24 7.72 1.8 6.96 1.48 6.20667C1.16 5.44667 1 4.72 1 4.02667C1 3.57333 1.08 3.14 1.24 2.74C1.4 2.33333 1.65333 1.96 2.00667 1.62667C2.43333 1.20667 2.9 1 3.39333 1C3.58 1 3.76667 1.04 3.93333 1.12C4.10667 1.2 4.26 1.32 4.38 1.49333L5.92667 3.67333C6.04667 3.84 6.13333 3.99333 6.19333 4.14C6.25333 4.28 6.28667 4.42 6.28667 4.54667C6.28667 4.70667 6.24 4.86667 6.14667 5.02C6.06 5.17333 5.93333 5.33333 5.77333 5.49333L5.26667 6.02C5.19333 6.09333 5.16 6.18 5.16 6.28667C5.16 6.34 5.16667 6.38667 5.18 6.44C5.2 6.49333 5.22 6.53333 5.23333 6.57333C5.35333 6.79333 5.56 7.08 5.85333 7.42667C6.15333 7.77333 6.47333 8.12667 6.82 8.48C7.18 8.83333 7.52667 9.16 7.88 9.46C8.22667 9.75333 8.51333 9.95333 8.74 10.0733C8.77333 10.0867 8.81333 10.1067 8.86 10.1267C8.91333 10.1467 8.96667 10.1533 9.02667 10.1533C9.14 10.1533 9.22667 10.1133 9.3 10.04L9.80667 9.54C9.97333 9.37333 10.1333 9.24667 10.2867 9.16667C10.44 9.07333 10.5933 9.02667 10.76 9.02667C10.8867 9.02667 11.02 9.05333 11.1667 9.11333C11.3133 9.17333 11.4667 9.26 11.6333 9.37333L13.84 10.94C14.0133 11.06 14.1333 11.2 14.2067 11.3667C14.2733 11.5333 14.3133 11.7 14.3133 11.8867Z" stroke="#F44336" stroke-width="1.5" stroke-miterlimit="10"/>
</svg>
