<svg width="14" height="16" viewBox="0 0 14 16" fill="none" xmlns="http://www.w3.org/2000/svg">
<path d="M7.10648 9.09627C7.39671 9.09627 7.68409 9.03911 7.95222 8.92804C8.22034 8.81698 8.46397 8.65419 8.66919 8.44898C8.87441 8.24376 9.0372 8.00013 9.14826 7.732C9.25932 7.46387 9.31648 7.17649 9.31648 6.88627C9.31648 6.59605 9.25932 6.30867 9.14826 6.04054C9.0372 5.77241 8.87441 5.52878 8.66919 5.32356C8.46397 5.11835 8.22034 4.95556 7.95222 4.8445C7.68409 4.73343 7.39671 4.67627 7.10648 4.67627C6.52036 4.67627 5.95823 4.90911 5.54378 5.32356C5.12932 5.73802 4.89648 6.30014 4.89648 6.88627C4.89648 7.4724 5.12932 8.03452 5.54378 8.44898C5.95823 8.86343 6.52036 9.09627 7.10648 9.09627Z" stroke="#F44336" stroke-width="1.5"/>
<path d="M1.17195 5.59708C2.56737 -0.537082 11.6553 -0.529998 13.0436 5.60417C13.8582 9.2025 11.6199 12.2483 9.65779 14.1325C8.97217 14.7938 8.05678 15.1633 7.10424 15.1633C6.15171 15.1633 5.23632 14.7938 4.5507 14.1325C2.5957 12.2483 0.357369 9.19542 1.17195 5.59708Z" stroke="#F44336" stroke-width="1.5"/>
</svg>
