<svg width="23" height="21" viewBox="0 0 23 21" fill="none" xmlns="http://www.w3.org/2000/svg">
<path d="M19.9608 4.12983H16.5193V2.06491C16.5193 0.924909 15.5944 0 14.4544 0H7.57135C6.43135 0 5.50644 0.924909 5.50644 2.06491V4.12983H2.06491C0.924909 4.12983 0 5.05474 0 6.19474V18.5842C0 19.7242 0.924909 20.6491 2.06491 20.6491H19.9608C21.1008 20.6491 22.0258 19.7242 22.0258 18.5842V6.19474C22.0258 5.05474 21.1008 4.12983 19.9608 4.12983ZM8.25966 2.75322H13.7661V4.12983H8.25966V2.75322ZM15.1427 13.4219C15.1427 13.6112 14.9878 13.7661 14.7986 13.7661H12.3895V16.1752C12.3895 16.3644 12.2346 16.5193 12.0453 16.5193H9.98042C9.79113 16.5193 9.63627 16.3644 9.63627 16.1752V13.7661H7.2272C7.03792 13.7661 6.88305 13.6112 6.88305 13.4219V11.357C6.88305 11.1677 7.03792 11.0129 7.2272 11.0129H9.63627V8.60381C9.63627 8.41453 9.79113 8.25966 9.98042 8.25966H12.0453C12.2346 8.25966 12.3895 8.41453 12.3895 8.60381V11.0129H14.7986C14.9878 11.0129 15.1427 11.1677 15.1427 11.357V13.4219Z" fill="white"/>
</svg>
