<svg width="24" height="24" viewBox="0 0 24 24" fill="none" xmlns="http://www.w3.org/2000/svg">
<path d="M12.0002 14C6.99016 14 2.91016 17.36 2.91016 21.5C2.91016 21.78 3.13016 22 3.41016 22H20.5902C20.8702 22 21.0902 21.78 21.0902 21.5C21.0902 17.36 17.0102 14 12.0002 14ZM16.7202 10.35L15.7602 9.39C16.2602 8.64 16.5502 7.74 16.5502 6.77C16.5502 6.14359 16.4268 5.52332 16.1871 4.9446C15.9473 4.36588 15.596 3.84004 15.1531 3.3971C14.7101 2.95417 14.1843 2.60281 13.6056 2.36309C13.0268 2.12338 12.4066 2 11.7802 2C9.15016 2 7.00016 4.14 7.00016 6.77C7.00016 9.4 9.14016 11.54 11.7702 11.54C12.7402 11.54 13.6402 11.25 14.3902 10.75L15.3502 11.71C15.5402 11.9 15.7902 11.99 16.0302 11.99C16.2802 11.99 16.5302 11.9 16.7102 11.71C17.0902 11.34 17.0902 10.73 16.7202 10.35Z" fill="white"/>
</svg>
