<svg width="24" height="25" viewBox="0 0 24 25" fill="none" xmlns="http://www.w3.org/2000/svg">
<path d="M8.99996 2.08337C6.37996 2.08337 4.24996 4.30212 4.24996 7.03129C4.24996 9.70837 6.25996 11.875 8.87996 11.9688C8.95996 11.9584 9.03996 11.9584 9.09996 11.9688H9.16996C10.3993 11.9261 11.5645 11.387 12.4192 10.4656C13.274 9.54414 13.7512 8.31258 13.75 7.03129C13.75 4.30212 11.62 2.08337 8.99996 2.08337ZM14.08 14.7386C11.29 12.8011 6.73996 12.8011 3.92996 14.7386C2.65996 15.624 1.95996 16.8219 1.95996 18.1032C1.95996 19.3844 2.65996 20.5719 3.91996 21.4469C5.31996 22.4261 7.15996 22.9157 8.99996 22.9157C10.84 22.9157 12.68 22.4261 14.08 21.4469C15.34 20.5615 16.04 19.374 16.04 18.0823C16.03 16.8011 15.34 15.6136 14.08 14.7386ZM19.99 7.64379C20.15 9.66462 18.77 11.4355 16.86 11.675H16.81C16.75 11.675 16.69 11.675 16.64 11.6959C15.67 11.748 14.78 11.425 14.11 10.8313C15.14 9.87296 15.73 8.43546 15.61 6.87296C15.5413 6.06046 15.2765 5.27927 14.84 4.60212C15.3639 4.33658 15.9421 4.20782 16.5245 4.22694C17.1069 4.24606 17.6761 4.41248 18.183 4.71187C18.6899 5.01125 19.1193 5.43459 19.4341 5.94538C19.7489 6.45617 19.9397 7.03907 19.99 7.64379Z" fill="white"/>
<path d="M21.9883 17.2812C21.9083 18.2916 21.2883 19.1666 20.2483 19.7604C19.2483 20.3333 17.9883 20.6041 16.7383 20.5729C17.4583 19.8958 17.8783 19.052 17.9583 18.1562C18.0583 16.8645 17.4683 15.625 16.2883 14.6354C15.6183 14.0833 14.8383 13.6458 13.9883 13.3229C16.1983 12.6562 18.9783 13.1041 20.6883 14.5416C21.6083 15.3125 22.0783 16.2812 21.9883 17.2812Z" fill="white"/>
</svg>
