<svg width="20" height="21" viewBox="0 0 20 21" fill="none" xmlns="http://www.w3.org/2000/svg">
<path d="M10.0002 13C4.99016 13 0.910156 16.36 0.910156 20.5C0.910156 20.78 1.13016 21 1.41016 21H18.5902C18.8702 21 19.0902 20.78 19.0902 20.5C19.0902 16.36 15.0102 13 10.0002 13ZM13.7102 1.65999C13.2445 1.13638 12.673 0.717635 12.0335 0.431464C11.3939 0.145293 10.7008 -0.00177812 10.0002 -1.48481e-05C8.60016 -1.48481e-05 7.32016 0.569985 6.41016 1.50999C5.54016 2.40999 5.00016 3.64999 5.00016 4.99999C5.00016 5.93999 5.26016 6.81998 5.73016 7.56998C5.98016 7.99998 6.30016 8.38999 6.68016 8.70998C7.55016 9.50998 8.71016 9.99998 10.0002 9.99998C11.8302 9.99998 13.4102 9.01999 14.2802 7.56998C14.5402 7.13999 14.7402 6.65999 14.8502 6.15999C14.9502 5.78999 15.0002 5.39999 15.0002 4.99999C15.0002 3.71999 14.5102 2.54999 13.7102 1.65999ZM11.8702 5.91999H10.9402V6.88999C10.9402 7.13929 10.8411 7.37838 10.6648 7.55467C10.4886 7.73095 10.2495 7.82999 10.0002 7.82999C9.75085 7.82999 9.51176 7.73095 9.33548 7.55467C9.15919 7.37838 9.06016 7.13929 9.06016 6.88999V5.91999H8.13016C7.88085 5.91999 7.64176 5.82095 7.46548 5.64467C7.28919 5.46838 7.19016 5.22929 7.19016 4.97999C7.19016 4.73068 7.28919 4.49159 7.46548 4.3153C7.64176 4.13902 7.88085 4.03999 8.13016 4.03999H9.06016V3.14999C9.06016 2.90068 9.15919 2.66159 9.33548 2.4853C9.51176 2.30902 9.75085 2.20999 10.0002 2.20999C10.2495 2.20999 10.4886 2.30902 10.6648 2.4853C10.8411 2.66159 10.9402 2.90068 10.9402 3.14999V4.03999H11.8702C12.1195 4.03999 12.3586 4.13902 12.5348 4.3153C12.7111 4.49159 12.8102 4.73068 12.8102 4.97999C12.8102 5.22929 12.7111 5.46838 12.5348 5.64467C12.3586 5.82095 12.1195 5.91999 11.8702 5.91999Z" fill="white"/>
</svg>
