<svg width="7" height="8" viewBox="0 0 7 8" fill="none" xmlns="http://www.w3.org/2000/svg">
<path d="M6.7375 1.14286C6.88247 1.14286 7 1.04691 7 0.928571V0.214286C7 0.0959464 6.88247 0 6.7375 0H0.2625C0.117534 0 0 0.0959464 0 0.214286V1.01336C0 1.1317 0.117534 1.22764 0.2625 1.22764H2.128C2.72536 1.22764 3.18371 1.40546 3.46172 1.71429H0.2625C0.117534 1.71429 0 1.81023 0 1.92857V2.64286C0 2.7612 0.117534 2.85714 0.2625 2.85714H3.73531C3.59931 3.50154 3.01429 3.90414 2.1 3.90414H0.2625C0.117534 3.90414 0 4.00009 0 4.11843V5.06507C0 5.12488 0.030625 5.18196 0.0844594 5.22254L3.69497 7.94318C3.74346 7.97971 3.80703 8 3.87301 8H5.67906C5.91802 8 6.03269 7.76057 5.8571 7.62825L2.55655 5.14118C4.22997 5.09939 5.42533 4.1877 5.58226 2.85714H6.7375C6.88247 2.85714 7 2.7612 7 2.64286V1.92857C7 1.81023 6.88247 1.71429 6.7375 1.71429H5.45366C5.3774 1.5082 5.27253 1.31704 5.14189 1.14286H6.7375Z" fill="#FDFDFD"/>
</svg>
