<svg width="44" height="35" viewBox="0 0 44 35" fill="none" xmlns="http://www.w3.org/2000/svg">
<path d="M0 15.2167V33.6942C0 34.2947 0.486391 34.7811 1.08691 34.7811H6.52145V13.0429H2.17382C0.973462 13.0429 0 14.0164 0 15.2167ZM24.4554 11.956H22.8251V9.23872C22.8251 8.93847 22.5819 8.69527 22.2816 8.69527H21.1947C20.8944 8.69527 20.6513 8.93847 20.6513 9.23872V13.5864C20.6513 13.8866 20.8944 14.1298 21.1947 14.1298H24.4554C24.7557 14.1298 24.9989 13.8866 24.9989 13.5864V12.4994C24.9989 12.1992 24.7557 11.956 24.4554 11.956ZM33.813 7.61108L22.9439 0.364799C22.5868 0.126924 22.1673 0 21.7382 0C21.309 0 20.8895 0.126924 20.5324 0.364799L9.66329 7.61108C9.36558 7.80956 9.12146 8.07845 8.9526 8.39391C8.78373 8.70936 8.69534 9.06162 8.69526 9.41942V34.7811H17.3905V24.9989C17.3905 24.3984 17.8769 23.912 18.4774 23.912H24.9989C25.5994 23.912 26.0858 24.3984 26.0858 24.9989V34.7811H34.7811V9.4201C34.7811 8.69323 34.4176 8.01391 33.813 7.61108ZM21.7382 17.3905C18.7369 17.3905 16.3036 14.9572 16.3036 11.956C16.3036 8.95477 18.7369 6.52145 21.7382 6.52145C24.7394 6.52145 27.1727 8.95477 27.1727 11.956C27.1727 14.9572 24.7394 17.3905 21.7382 17.3905ZM41.3025 13.0429H36.9549V34.7811H42.3894C42.9899 34.7811 43.4763 34.2947 43.4763 33.6942V15.2167C43.4763 14.0164 42.5029 13.0429 41.3025 13.0429Z" fill="white"/>
</svg>
