<svg width="19" height="21" viewBox="0 0 19 21" fill="none" xmlns="http://www.w3.org/2000/svg">
<path d="M9.09 10C10.4161 10 11.6879 9.47322 12.6255 8.53553C13.5632 7.59785 14.09 6.32608 14.09 5C14.09 3.67392 13.5632 2.40215 12.6255 1.46447C11.6879 0.526784 10.4161 0 9.09 0C7.76392 0 6.49215 0.526784 5.55447 1.46447C4.61678 2.40215 4.09 3.67392 4.09 5C4.09 6.32608 4.61678 7.59785 5.55447 8.53553C6.49215 9.47322 7.76392 10 9.09 10ZM9.09 12.5C4.08 12.5 0 15.86 0 20C0 20.28 0.22 20.5 0.5 20.5H17.68C17.96 20.5 18.18 20.28 18.18 20C18.18 15.86 14.1 12.5 9.09 12.5Z" fill="white"/>
</svg>
