<svg width="21" height="22" viewBox="0 0 21 22" fill="none" xmlns="http://www.w3.org/2000/svg">
<path d="M19.5599 9.73901L18.1999 8.15901C17.9399 7.85901 17.7299 7.29901 17.7299 6.89901V5.19901C17.7299 4.13901 16.8599 3.26901 15.7999 3.26901H14.0999C13.7099 3.26901 13.1399 3.05901 12.8399 2.79901L11.2599 1.43901C10.5699 0.849006 9.43988 0.849006 8.73988 1.43901L7.16988 2.80901C6.86988 3.05901 6.29988 3.26901 5.90988 3.26901H4.17988C3.11988 3.26901 2.24988 4.13901 2.24988 5.19901V6.90901C2.24988 7.29901 2.03988 7.85901 1.78988 8.15901L0.439883 9.74901C-0.140117 10.439 -0.140117 11.559 0.439883 12.249L1.78988 13.839C2.03988 14.139 2.24988 14.699 2.24988 15.089V16.799C2.24988 17.859 3.11988 18.729 4.17988 18.729H5.90988C6.29988 18.729 6.86988 18.939 7.16988 19.199L8.74988 20.559C9.43988 21.149 10.5699 21.149 11.2699 20.559L12.8499 19.199C13.1499 18.939 13.7099 18.729 14.1099 18.729H15.8099C16.8699 18.729 17.7399 17.859 17.7399 16.799V15.099C17.7399 14.709 17.9499 14.139 18.2099 13.839L19.5699 12.259C20.1499 11.569 20.1499 10.429 19.5599 9.73901ZM14.1599 9.10901L9.32988 13.939C9.18926 14.0795 8.99863 14.1583 8.79988 14.1583C8.60113 14.1583 8.41051 14.0795 8.26988 13.939L5.84988 11.519C5.7104 11.3779 5.63218 11.1874 5.63218 10.989C5.63218 10.7906 5.7104 10.6001 5.84988 10.459C6.13988 10.169 6.61988 10.169 6.90988 10.459L8.79988 12.349L13.0999 8.04901C13.3899 7.75901 13.8699 7.75901 14.1599 8.04901C14.4499 8.33901 14.4499 8.81901 14.1599 9.10901Z" fill="#1DB610"/>
</svg>
